<?xml version="1.0" encoding="UTF-8"?>
<svg width="58px" height="58px" viewBox="0 0 58 58" version="1.1" xmlns="http://www.w3.org/2000/svg" xmlns:xlink="http://www.w3.org/1999/xlink">
    <title>members</title>
    <defs>
        <linearGradient x1="100%" y1="0%" x2="0%" y2="100%" id="linearGradient-1">
            <stop stop-color="#606D82" offset="0%"></stop>
            <stop stop-color="#455065" offset="100%"></stop>
        </linearGradient>
    </defs>
    <g id="管理中心" stroke="none" stroke-width="1" fill="none" fill-rule="evenodd">
        <g id="切图" transform="translate(-274.000000, -99.000000)">
            <g id="编组-9备份-2" transform="translate(274.000000, 99.000000)">
                <rect id="矩形备份-16" fill="url(#linearGradient-1)" x="0" y="0" width="58" height="58" rx="5.04347826"></rect>
                <path d="M29,27.468732 C33.2808217,27.468732 37.2394633,28.8481486 40.4556809,31.1867377 C37.9949847,31.3477949 35.5764603,32.3681039 33.6972535,34.2473212 C29.6335012,38.358864 29.6335012,45.0521032 33.6972535,49.1636469 C34.7524306,50.2188236 35.9713506,50.9969069 37.2699651,51.5043593 C34.7603065,52.1119097 31.9570171,52.531268 29,52.531268 C21.6767042,52.531268 15.2962907,49.9591514 11.9627315,48.3129967 L11.584732,48.1238145 C10.3915776,47.5185634 9.66460102,47.0716873 9.52477387,46.9843145 L9.5,46.968732 C9.5,36.1991794 18.2304474,27.468732 29,27.468732 Z M46.957552,35.8620136 C49.7953105,38.6997563 50.132163,43.1078447 47.9681094,46.2927684 L49.999853,48.3401331 C50.5834543,48.9280966 50.5799179,49.8778375 49.9919544,50.4614387 C49.4407387,51.0085649 48.5715545,51.0396522 47.984187,50.5569339 L47.8706488,50.4535401 L45.8672406,48.4351041 C44.4549628,49.4323444 42.7627347,49.9400279 41.1166747,49.9400279 C39.0199587,49.9400279 36.9232248,49.1537505 35.3132426,47.5437683 C32.1307055,44.3238039 32.1307055,39.081978 35.3132426,35.8620136 C38.533207,32.6420313 43.7750328,32.6420313 46.957552,35.8620136 Z M41.127388,36.8354857 C39.8978501,36.8354857 38.6415804,37.3166081 37.7060418,38.2521467 C35.8350031,40.1231854 35.8350031,43.2505067 37.7060418,45.14829 C39.5770933,47.0193288 42.7044146,47.0193288 44.602198,45.14829 C46.4732367,43.2772385 46.4732367,40.1499172 44.602198,38.2521339 C43.6399404,37.3166081 42.3569387,36.8354857 41.127388,36.8354857 Z M29,5.46873204 C34.7989899,5.46873204 39.5,10.1697422 39.5,15.968732 C39.5,21.7677219 34.7989899,26.468732 29,26.468732 C23.2010101,26.468732 18.5,21.7677219 18.5,15.968732 C18.5,10.1697422 23.2010101,5.46873204 29,5.46873204 Z" id="形状结合" fill-opacity="0.5" fill="#FFFFFF" fill-rule="nonzero"></path>
            </g>
        </g>
    </g>
</svg>